<?xml version="1.0" encoding="UTF-8"?><svg xmlns="http://www.w3.org/2000/svg" xmlns:xlink="http://www.w3.org/1999/xlink" height="575.1" preserveAspectRatio="xMidYMid meet" version="1.0" viewBox="134.6 8.9 575.1 575.1" width="575.1" zoomAndPan="magnify"><g id="change1_1"><path d="M709.7,496.6c0,48.2-39.2,87.4-87.4,87.4H222c-48.2,0-87.4-39.2-87.4-87.4V96.3c0-48.2,39.2-87.4,87.4-87.4 h400.3c48.2,0,87.4,39.2,87.4,87.4V496.6z" fill="#396791"/></g><g id="change2_1"><path d="M301.9,136.4h248.6c23.6,0,43,19.3,43,43V428c0,23.6-19.3,42.9-43,42.9H301.9c-23.6,0-43-19.3-43-42.9V179.4 C258.9,155.7,278.2,136.4,301.9,136.4z M502.5,173.6c-8.3,0-15,6.8-15,15.1v36.1c0,8.3,6.8,15.1,15,15.1h37.7c8.3,0,15-6.8,15-15.1 v-36.1c0-8.3-6.8-15.1-15-15.1H502.5L502.5,173.6z M555.6,277.9h-29.4c2.7,9.2,4.3,18.7,4.3,28.7c0,55.6-46.6,100.7-103.9,100.7 s-103.9-45.1-103.9-100.7c0-10,1.5-19.6,4.3-28.7h-30.7v141.3c0,7.3,6,13.2,13.3,13.2h232.9c7.3,0,13.3-6,13.3-13.2L555.6,277.9 L555.6,277.9z M426.4,237.9c-37,0-67.1,29.2-67.1,65.1s30.1,65.1,67.1,65.1c37.1,0,67.1-29.2,67.1-65.1 C493.6,266.9,463.6,237.9,426.4,237.9z" fill="#FFF"/></g></svg>